# xmcd
#
# Track frame offsets:
#	150
#	13367
#	22589
#	31273
#	39097
#	50063
#	63866
#	72644
#	85826
#	98181
#
# Disc length: 1462 seconds
#
# Revision: 1
# Processed by: cddbd v1.5.2PL0 Copyright (c) Steve Scherf et al.
# Submitted via: audiograbber 1.83.01
#
DISCID=7805b40a
DTITLE=Hank Williams, Jr. and Lois Johnson - Removing the Shadow
DYEAR=1970
DGENRE=Country
TTITLE0=So Sad To Watch Good Love Go Bad
TTITLE1=Party People
TTITLE2=Let's Talk It Over Again
TTITLE3=Why Don't You Love Me
TTITLE4=What We Used To Hang On To (Is Gone)
TTITLE5=Removing The Shadow
TTITLE6=Settin' The Woods On Fire
TTITLE7=If I Were A Carpenter
TTITLE8=We Live In Two Different Worlds
TTITLE9=My Heart Would Know
EXTD=
EXTT0=
EXTT1=
EXTT2=
EXTT3=
EXTT4=
EXTT5=
EXTT6=
EXTT7=
EXTT8=
EXTT9=
PLAYORDER=
